ffmpeg started on 2025-06-27 at 10:34:31
Report written to "D:\Convert\FFMetrics\reports\ssim_report-6.txt"
Log level: 32
Command line:
ffmpeg -hide_banner -nostdin -i "G:\\\xc0\xed\xe8\xec\xe5\\[\xd2\xee\xef-4]\\\xd2\xee\xea\xe8\xe9\xf1\xea\xe8\xe9 \xc3\xf3\xeb\xfc\\\xd2\xc2-4\\Tokyo_Ghoul_Re_[24]_[AniLibria_TV]_[HDTVRip_720p]_HEVC.mkv" -i "G:\\\xc0\xed\xe8\xec\xe5\\[\xd2\xee\xef-4]\\\xd2\xee\xea\xe8\xe9\xf1\xea\xe8\xe9 \xc3\xf3\xeb\xfc\\\xd2\xc2-4\\Tokyo_Ghoul_Re_[24]_[AniLibria_TV]_[HDTVRip_720p].mkv" -lavfi "[0:v]settb=AVTB,setpts=PTS-STARTPTS,format=pix_fmts=yuv420p10,fps=24000/1001,scale=1280:720:flags=bicubic[main];[1:v]settb=AVTB,setpts=PTS-STARTPTS,format=pix_fmts=yuv420p,fps=24000/1001,scale=1280:720:flags=bicubic[ref];[main][ref]ssim=eof_action=endall:stats_file='D\\:/Convert/FFMetrics/logs/ssim_logfile-6.txt'" -f null -
Input #0, matroska,webm, from 'G:\Аниме\[Топ-4]\Токийский Гуль\ТВ-4\Tokyo_Ghoul_Re_[24]_[AniLibria_TV]_[HDTVRip_720p]_HEVC.mkv':
  Metadata:
    ENCODER         : Lavf61.7.100
  Duration: 00:24:30.04, start: -0.021000, bitrate: 792 kb/s
  Stream #0:0(jpn): Video: hevc (Main 10), yuv420p10le(tv, bt709, progressive), 1280x720 [SAR 1:1 DAR 16:9], 23.98 fps, 23.98 tbr, 1k tbn (default)
      Metadata:
        ENCODER         : Lavc61.19.100 libx265
        BPS             : 594237
        DURATION        : 00:24:29.968708333
        NUMBER_OF_FRAMES: 35244
        NUMBER_OF_BYTES : 109188751
        _STATISTICS_WRITING_APP: mkvpropedit v66.0.0 ('Josie') 64-bit
        _STATISTICS_WRITING_DATE_UTC: 2025-06-26 16:53:53
        _STATISTICS_TAGS: BPS DURATION NUMBER_OF_FRAMES NUMBER_OF_BYTES
  Stream #0:1(rus): Audio: aac (LC), 48000 Hz, stereo, fltp (default) (forced)
      Metadata:
        title           : AniLibria.TV
        ENCODER         : Lavc61.19.100 aac
        BPS             : 194298
        DURATION        : 00:24:30.015000000
        NUMBER_OF_FRAMES: 68908
        NUMBER_OF_BYTES : 35702682
        _STATISTICS_WRITING_APP: mkvpropedit v66.0.0 ('Josie') 64-bit
        _STATISTICS_WRITING_DATE_UTC: 2025-06-26 16:53:53
        _STATISTICS_TAGS: BPS DURATION NUMBER_OF_FRAMES NUMBER_OF_BYTES
  Stream #0:2(rus): Subtitle: ass (ssa) (default) (forced)
      Metadata:
        title           : Надписи
        BPS             : 18
        DURATION        : 00:23:27.610000000
        NUMBER_OF_FRAMES: 47
        NUMBER_OF_BYTES : 3215
        _STATISTICS_WRITING_APP: mkvpropedit v66.0.0 ('Josie') 64-bit
        _STATISTICS_WRITING_DATE_UTC: 2025-06-26 16:53:53
        _STATISTICS_TAGS: BPS DURATION NUMBER_OF_FRAMES NUMBER_OF_BYTES
  Stream #0:3(rus): Subtitle: ass (ssa)
      Metadata:
        title           : Полные
        BPS             : 94
        DURATION        : 00:24:02.490000000
        NUMBER_OF_FRAMES: 253
        NUMBER_OF_BYTES : 17054
        _STATISTICS_WRITING_APP: mkvpropedit v66.0.0 ('Josie') 64-bit
        _STATISTICS_WRITING_DATE_UTC: 2025-06-26 16:53:53
        _STATISTICS_TAGS: BPS DURATION NUMBER_OF_FRAMES NUMBER_OF_BYTES
[matroska,webm @ 0000020fcf21a6c0] Could not find codec parameters for stream 18 (Attachment: none): unknown codec
Consider increasing the value for the 'analyzeduration' (0) and 'probesize' (5000000) options
Input #1, matroska,webm, from 'G:\Аниме\[Топ-4]\Токийский Гуль\ТВ-4\Tokyo_Ghoul_Re_[24]_[AniLibria_TV]_[HDTVRip_720p].mkv':
  Metadata:
    encoder         : libebml v1.4.2 + libmatroska v1.6.4
    creation_time   : 2024-12-27T09:51:12.000000Z
  Duration: 00:24:30.02, start: 0.000000, bitrate: 2318 kb/s
  Stream #1:0(jpn): Video: h264 (Main), yuv420p(tv, bt709, progressive), 1280x720, SAR 1:1 DAR 16:9, 23.98 fps, 23.98 tbr, 1k tbn (default)
      Metadata:
        BPS             : 2112478
        DURATION        : 00:24:29.969000000
        NUMBER_OF_FRAMES: 35244
        NUMBER_OF_BYTES : 388159823
        _STATISTICS_WRITING_APP: mkvmerge v66.0.0 ('Josie') 64-bit
        _STATISTICS_WRITING_DATE_UTC: 2024-12-27 09:51:12
        _STATISTICS_TAGS: BPS DURATION NUMBER_OF_FRAMES NUMBER_OF_BYTES
  Stream #1:1(rus): Audio: aac (LC), 48000 Hz, stereo, fltp (default) (forced)
      Metadata:
        title           : AniLibria.TV
        BPS             : 192091
        DURATION        : 00:24:30.015000000
        NUMBER_OF_FRAMES: 68907
        NUMBER_OF_BYTES : 35297249
        _STATISTICS_WRITING_APP: mkvmerge v66.0.0 ('Josie') 64-bit
        _STATISTICS_WRITING_DATE_UTC: 2024-12-27 09:51:12
        _STATISTICS_TAGS: BPS DURATION NUMBER_OF_FRAMES NUMBER_OF_BYTES
  Stream #1:2(rus): Subtitle: ass (ssa) (default) (forced)
      Metadata:
        title           : Надписи
        BPS             : 18
        DURATION        : 00:23:27.610000000
        NUMBER_OF_FRAMES: 47
        NUMBER_OF_BYTES : 3215
        _STATISTICS_WRITING_APP: mkvmerge v66.0.0 ('Josie') 64-bit
        _STATISTICS_WRITING_DATE_UTC: 2024-12-27 09:51:12
        _STATISTICS_TAGS: BPS DURATION NUMBER_OF_FRAMES NUMBER_OF_BYTES
  Stream #1:3(rus): Subtitle: ass (ssa)
      Metadata:
        title           : Полные
        BPS             : 94
        DURATION        : 00:24:02.490000000
        NUMBER_OF_FRAMES: 253
        NUMBER_OF_BYTES : 17054
        _STATISTICS_WRITING_APP: mkvmerge v66.0.0 ('Josie') 64-bit
        _STATISTICS_WRITING_DATE_UTC: 2024-12-27 09:51:12
        _STATISTICS_TAGS: BPS DURATION NUMBER_OF_FRAMES NUMBER_OF_BYTES
  Stream #1:4: Attachment: ttf
      Metadata:
        filename        : 10322__2.ttf
        mimetype        : application/x-truetype-font
  Stream #1:5: Attachment: ttf
      Metadata:
        filename        : 10352__0.ttf
        mimetype        : application/x-truetype-font
  Stream #1:6: Attachment: ttf
      Metadata:
        filename        : Aero Matics Display Bold Italic.ttf
        mimetype        : application/x-truetype-font
  Stream #1:7: Attachment: ttf
      Metadata:
        filename        : Aero Matics Display Bold.ttf
        mimetype        : application/x-truetype-font
  Stream #1:8: Attachment: ttf
      Metadata:
        filename        : Aero Matics Display Italic.ttf
        mimetype        : application/x-truetype-font
  Stream #1:9: Attachment: ttf
      Metadata:
        filename        : Aero Matics Display Light Italic.ttf
        mimetype        : application/x-truetype-font
  Stream #1:10: Attachment: ttf
      Metadata:
        filename        : Aero Matics Display Light.ttf
        mimetype        : application/x-truetype-font
  Stream #1:11: Attachment: ttf
      Metadata:
        filename        : Aero_Matics_Display_Regular.ttf
        mimetype        : application/x-truetype-font
  Stream #1:12: Attachment: ttf
      Metadata:
        filename        : BenchNine-Regular.ttf
        mimetype        : application/x-truetype-font
  Stream #1:13: Attachment: ttf
      Metadata:
        filename        : ObelixPro (Regular).ttf
        mimetype        : application/x-truetype-font
  Stream #1:14: Attachment: ttf
      Metadata:
        filename        : OHCRBRG.TTF
        mimetype        : application/x-truetype-font
  Stream #1:15: Attachment: ttf
      Metadata:
        filename        : OpenSanA.ttf
        mimetype        : application/x-truetype-font
  Stream #1:16: Attachment: ttf
      Metadata:
        filename        : Passing Notes.ttf
        mimetype        : application/x-truetype-font
  Stream #1:17: Attachment: ttf
      Metadata:
        filename        : REDOCTOB.otf
        mimetype        : application/x-truetype-font
  Stream #1:18: Attachment: none
      Metadata:
        filename        : simsun_0.ttc
        mimetype        : application/octet-stream
  Stream #1:19: Attachment: ttf
      Metadata:
        filename        : Snowstorm.ttf
        mimetype        : application/x-truetype-font
  Stream #1:20: Attachment: ttf
      Metadata:
        filename        : TEMPSITC.TTF
        mimetype        : application/x-truetype-font
  Stream #1:21: Attachment: ttf
      Metadata:
        filename        : TrajanPro3-Bold.otf
        mimetype        : application/x-truetype-font
  Stream #1:22: Attachment: ttf
      Metadata:
        filename        : TrajanPro3-Regular.otf
        mimetype        : application/x-truetype-font
  Stream #1:23: Attachment: ttf
      Metadata:
        filename        : v_BloodyMurder BB_v1.0.ttf
        mimetype        : application/x-truetype-font
  Stream #1:24: Attachment: ttf
      Metadata:
        filename        : v_CCTimSale_v1.11.ttf
        mimetype        : application/x-truetype-font
  Stream #1:25: Attachment: ttf
      Metadata:
        filename        : v_HolyMackerelli_v1.9.ttf
        mimetype        : application/x-truetype-font
  Stream #1:26: Attachment: ttf
      Metadata:
        filename        : v_StraightJacketBB_v1.1.ttf
        mimetype        : application/x-truetype-font
  Stream #1:27: Attachment: ttf
      Metadata:
        filename        : XENI.TTF
        mimetype        : application/x-truetype-font
Stream mapping:
  Stream #0:0 (hevc) -> settb:default
  Stream #1:0 (h264) -> settb:default
  ssim:default -> Stream #0:0 (wrapped_avframe)
  Stream #0:1 -> #0:1 (aac (native) -> pcm_s16le (native))
Output #0, null, to 'pipe:':
  Metadata:
    encoder         : Lavf61.7.100
  Stream #0:0: Video: wrapped_avframe, yuv420p10le(tv, bt709, progressive), 1280x720 [SAR 1:1 DAR 16:9], q=2-31, 200 kb/s, 23.98 fps, 23.98 tbn
      Metadata:
        encoder         : Lavc61.19.100 wrapped_avframe
  Stream #0:1(rus): Audio: pcm_s16le, 48000 Hz, stereo, s16, 1536 kb/s (default) (forced)
      Metadata:
        title           : AniLibria.TV
        _STATISTICS_TAGS: BPS DURATION NUMBER_OF_FRAMES NUMBER_OF_BYTES
        BPS             : 194298
        DURATION        : 00:24:30.015000000
        NUMBER_OF_FRAMES: 68908
        NUMBER_OF_BYTES : 35702682
        _STATISTICS_WRITING_APP: mkvpropedit v66.0.0 ('Josie') 64-bit
        _STATISTICS_WRITING_DATE_UTC: 2025-06-26 16:53:53
        encoder         : Lavc61.19.100 pcm_s16le
frame=  460 fps=0.0 q=-0.0 size=N/A time=00:00:19.18 bitrate=N/A speed=37.8x    frame=  978 fps=960 q=-0.0 size=N/A time=00:00:40.79 bitrate=N/A speed=  40x    frame= 1506 fps=974 q=-0.0 size=N/A time=00:01:02.81 bitrate=N/A speed=40.6x    frame= 1904 fps=926 q=-0.0 size=N/A time=00:01:19.41 bitrate=N/A speed=38.6x    frame= 2264 fps=882 q=-0.0 size=N/A time=00:01:34.42 bitrate=N/A speed=36.8x    frame= 2653 fps=858 q=-0.0 size=N/A time=00:01:50.65 bitrate=N/A speed=35.8x    frame= 3071 fps=853 q=-0.0 size=N/A time=00:02:08.08 bitrate=N/A speed=35.6x    frame= 3490 fps=848 q=-0.0 size=N/A time=00:02:25.56 bitrate=N/A speed=35.4x    frame= 3860 fps=832 q=-0.0 size=N/A time=00:02:40.99 bitrate=N/A speed=34.7x    frame= 4297 fps=834 q=-0.0 size=N/A time=00:02:59.22 bitrate=N/A speed=34.8x    frame= 4692 fps=829 q=-0.0 size=N/A time=00:03:15.69 bitrate=N/A speed=34.6x    frame= 5181 fps=838 q=-0.0 size=N/A time=00:03:36.09 bitrate=N/A speed=  35x    frame= 5647 fps=844 q=-0.0 size=N/A time=00:03:55.52 bitrate=N/A speed=35.2x    frame= 6082 fps=843 q=-0.0 size=N/A time=00:04:13.67 bitrate=N/A speed=35.1x    frame= 6431 fps=832 q=-0.0 size=N/A time=00:04:28.22 bitrate=N/A speed=34.7x    frame= 6794 fps=825 q=-0.0 size=N/A time=00:04:43.36 bitrate=N/A speed=34.4x    frame= 7320 fps=835 q=-0.0 size=N/A time=00:05:05.30 bitrate=N/A speed=34.8x    frame= 7803 fps=841 q=-0.0 size=N/A time=00:05:25.45 bitrate=N/A speed=35.1x    frame= 8187 fps=837 q=-0.0 size=N/A time=00:05:41.46 bitrate=N/A speed=34.9x    frame= 8615 fps=836 q=-0.0 size=N/A time=00:05:59.31 bitrate=N/A speed=34.9x    frame= 9043 fps=836 q=-0.0 size=N/A time=00:06:17.16 bitrate=N/A speed=34.9x    frame= 9458 fps=835 q=-0.0 size=N/A time=00:06:34.47 bitrate=N/A speed=34.8x    frame= 9966 fps=841 q=-0.0 size=N/A time=00:06:55.66 bitrate=N/A speed=35.1x    frame=10424 fps=842 q=-0.0 size=N/A time=00:07:14.76 bitrate=N/A speed=35.1x    frame=10927 fps=848 q=-0.0 size=N/A time=00:07:35.74 bitrate=N/A speed=35.4x    frame=11334 fps=846 q=-0.0 size=N/A time=00:07:52.72 bitrate=N/A speed=35.3x    frame=11700 fps=840 q=-0.0 size=N/A time=00:08:07.98 bitrate=N/A speed=35.1x    frame=12087 fps=838 q=-0.0 size=N/A time=00:08:24.12 bitrate=N/A speed=34.9x    frame=12571 fps=841 q=-0.0 size=N/A time=00:08:44.31 bitrate=N/A speed=35.1x    frame=12914 fps=835 q=-0.0 size=N/A time=00:08:58.62 bitrate=N/A speed=34.8x    frame=13233 fps=828 q=-0.0 size=N/A time=00:09:11.92 bitrate=N/A speed=34.5x    frame=13555 fps=822 q=-0.0 size=N/A time=00:09:25.35 bitrate=N/A speed=34.3x    frame=14062 fps=827 q=-0.0 size=N/A time=00:09:46.50 bitrate=N/A speed=34.5x    frame=14530 fps=829 q=-0.0 size=N/A time=00:10:06.02 bitrate=N/A speed=34.6x    frame=15018 fps=832 q=-0.0 size=N/A time=00:10:26.37 bitrate=N/A speed=34.7x    frame=15241 fps=822 q=-0.0 size=N/A time=00:10:35.67 bitrate=N/A speed=34.3x    frame=15743 fps=825 q=-0.0 size=N/A time=00:10:56.61 bitrate=N/A speed=34.4x    frame=16317 fps=833 q=-0.0 size=N/A time=00:11:20.55 bitrate=N/A speed=34.8x    frame=16857 fps=838 q=-0.0 size=N/A time=00:11:43.07 bitrate=N/A speed=  35x    frame=17249 fps=837 q=-0.0 size=N/A time=00:11:59.42 bitrate=N/A speed=34.9x    frame=17721 fps=838 q=-0.0 size=N/A time=00:12:19.11 bitrate=N/A speed=  35x    frame=18229 fps=842 q=-0.0 size=N/A time=00:12:40.30 bitrate=N/A speed=35.1x    frame=18687 fps=843 q=-0.0 size=N/A time=00:12:59.40 bitrate=N/A speed=35.2x    frame=19232 fps=848 q=-0.0 size=N/A time=00:13:22.13 bitrate=N/A speed=35.4x    frame=19817 fps=854 q=-0.0 size=N/A time=00:13:46.53 bitrate=N/A speed=35.6x    frame=20352 fps=858 q=-0.0 size=N/A time=00:14:08.84 bitrate=N/A speed=35.8x    frame=20888 fps=862 q=-0.0 size=N/A time=00:14:31.20 bitrate=N/A speed=  36x    frame=21417 fps=865 q=-0.0 size=N/A time=00:14:53.26 bitrate=N/A speed=36.1x    frame=21919 fps=868 q=-0.0 size=N/A time=00:15:14.20 bitrate=N/A speed=36.2x    frame=22404 fps=869 q=-0.0 size=N/A time=00:15:34.43 bitrate=N/A speed=36.3x    frame=22969 fps=873 q=-0.0 size=N/A time=00:15:57.99 bitrate=N/A speed=36.4x    frame=23474 fps=876 q=-0.0 size=N/A time=00:16:19.06 bitrate=N/A speed=36.5x    frame=23927 fps=876 q=-0.0 size=N/A time=00:16:37.95 bitrate=N/A speed=36.5x    frame=24345 fps=875 q=-0.0 size=N/A time=00:16:55.38 bitrate=N/A speed=36.5x    frame=24633 fps=869 q=-0.0 size=N/A time=00:17:07.40 bitrate=N/A speed=36.2x    frame=25129 fps=870 q=-0.0 size=N/A time=00:17:28.08 bitrate=N/A speed=36.3x    frame=25517 fps=868 q=-0.0 size=N/A time=00:17:44.27 bitrate=N/A speed=36.2x    frame=25958 fps=868 q=-0.0 size=N/A time=00:18:02.66 bitrate=N/A speed=36.2x    frame=26468 fps=870 q=-0.0 size=N/A time=00:18:23.93 bitrate=N/A speed=36.3x    frame=26977 fps=872 q=-0.0 size=N/A time=00:18:45.16 bitrate=N/A speed=36.4x    frame=27454 fps=873 q=-0.0 size=N/A time=00:19:05.06 bitrate=N/A speed=36.4x    frame=27943 fps=874 q=-0.0 size=N/A time=00:19:25.45 bitrate=N/A speed=36.5x    frame=28364 fps=873 q=-0.0 size=N/A time=00:19:43.01 bitrate=N/A speed=36.4x    frame=28799 fps=873 q=-0.0 size=N/A time=00:20:01.15 bitrate=N/A speed=36.4x    frame=29222 fps=872 q=-0.0 size=N/A time=00:20:18.80 bitrate=N/A speed=36.4x    frame=29686 fps=873 q=-0.0 size=N/A time=00:20:38.15 bitrate=N/A speed=36.4x    frame=30160 fps=873 q=-0.0 size=N/A time=00:20:57.92 bitrate=N/A speed=36.4x    frame=30617 fps=873 q=-0.0 size=N/A time=00:21:16.98 bitrate=N/A speed=36.4x    frame=31082 fps=874 q=-0.0 size=N/A time=00:21:36.37 bitrate=N/A speed=36.4x    frame=31564 fps=874 q=-0.0 size=N/A time=00:21:56.48 bitrate=N/A speed=36.5x    frame=32085 fps=876 q=-0.0 size=N/A time=00:22:18.21 bitrate=N/A speed=36.5x    frame=32615 fps=878 q=-0.0 size=N/A time=00:22:40.31 bitrate=N/A speed=36.6x    frame=33101 fps=879 q=-0.0 size=N/A time=00:23:00.58 bitrate=N/A speed=36.7x    frame=33479 fps=877 q=-0.0 size=N/A time=00:23:16.35 bitrate=N/A speed=36.6x    frame=33861 fps=875 q=-0.0 size=N/A time=00:23:32.28 bitrate=N/A speed=36.5x    frame=34297 fps=875 q=-0.0 size=N/A time=00:23:50.47 bitrate=N/A speed=36.5x    frame=34701 fps=874 q=-0.0 size=N/A time=00:24:07.32 bitrate=N/A speed=36.4x    frame=35211 fps=875 q=-0.0 size=N/A time=00:24:28.59 bitrate=N/A speed=36.5x    [Parsed_ssim_10 @ 0000020fcfb89140] SSIM Y:0.989275 (19.696199) U:0.993329 (21.758227) V:0.992868 (21.467884) All:0.990550 (20.245598)
[out#0/null @ 0000020fd014e380] video:15144KiB audio:275632KiB subtitle:0KiB other streams:0KiB global headers:0KiB muxing overhead: unknown
frame=35244 fps=876 q=-0.0 Lsize=N/A time=00:24:29.96 bitrate=N/A speed=36.5x    
